<?xml version="1.0" standalone="no"?><!-- Generator: Gravit.io --><svg xmlns="http://www.w3.org/2000/svg" xmlns:xlink="http://www.w3.org/1999/xlink" style="isolation:isolate" viewBox="617.475 295.683 417.051 507.317" width="417.051" height="507.317"><rect x="617.475" y="385.949" width="417.051" height="417.051" transform="matrix(1,0,0,1,0,0)" fill="rgb(194,210,227)"/><g id="Lighter Body"><path d=" M 820 477.5 C 820 447.421 844.421 423 874.5 423 C 904.579 423 929 447.421 929 477.5 C 929 507.579 904.579 532 874.5 532 C 844.421 532 820 507.579 820 477.5 Z " fill="rgb(59,53,53)"/><rect x="690" y="532" width="272" height="106" transform="matrix(1,0,0,1,0,0)" fill="rgb(153,73,73)"/><path d="M 726.739 532 L 925.261 532 C 945.538 532 962 548.462 962 568.739 L 962 742.261 C 962 762.538 945.538 779 925.261 779 L 726.739 779 C 706.462 779 690 762.538 690 742.261 L 690 568.739 C 690 548.462 706.462 532 726.739 532 Z" style="stroke:none;fill:#994949;stroke-miterlimit:10;"/><path d=" M 841.231 403 L 690 403 L 690 532 L 962 532 L 962 501.654 C 954.924 503.189 947.56 504 940 504 C 885.36 504 841 461.656 841 409.5 C 841 407.315 841.078 405.148 841.231 403 Z " fill="rgb(235,235,235)"/></g></svg>